<svg xmlns="http://www.w3.org/2000/svg" width="235" height="40" viewBox="0 0 62.18 10.58">  
    <path  d="M8.84 6.13q0-1.91-1.25-3.18-1.26-1.27-3.17-1.27-1.92 0-3.17 1.27T0 6.13q0 1.91 1.25 3.18 1.25 1.27 3.17 1.27 1.91 0 3.17-1.27 1.25-1.27 1.25-3.18zm-1.42 0q0 1.38-.85 2.26-.84.88-2.15.88-1.3 0-2.15-.89-.85-.87-.85-2.25 0-1.37.85-2.25Q3.12 3 4.42 3q1.31 0 2.15.87.85.9.85 2.26z" />
    <path  d="M19.54 10.47V9.2h-1V3.08h1V1.8h-2.7l-2.5 6.02-2.53-6.02H9.13v1.27h1.04V10.47h2.27V9.2h-.96V4.4l2.49 6.07h.63l2.52-6.05V10.47z" />
    <path  d="M29.59 3.08V1.8h-2.36V7.95q-.81-1.26-1.63-2.45l-1.17-1.75-1.25-1.94H20.7v1.27h1.08V10.47h2.44V9.2H23.1V4.15l4.25 6.42h1.2v-7.5z" />
    <path d="M32.24 1.5V0h-1.42v1.5zm1.03 8.97V9.2h-1.02V1.8h-1.42v7.4h-1v1.27z" />
    <path d="M40.08 3.74V2.18H33.7v2.5h.55V2.7h2.31v6.87h-1.1v.52h1.76V2.7h2.32v1.04z" />
    <path d="M46.87 10.1v-.53h-4.74V6.3h3.33v-.53h-3.33V2.7h4.2v1.4h.53V2.18h-6.42v.52h1.03V10.1z" />
    <path d="M54.8 7.52l-.55-.32q-.47 1.29-1.29 1.88-.8.56-1.91.56-1.48 0-2.41-1-.95-1-.95-2.5 0-1.55.94-2.54.92-.98 2.37-.98 1.02 0 1.9.56.84.54 1.04 1.53h.56V2.88h-.55v.6q-.59-.76-1.37-1.1-.81-.33-1.56-.33-1.76 0-2.88 1.14-1.11 1.13-1.11 2.94 0 1.83 1.11 2.96 1.1 1.12 2.9 1.12 1.25 0 2.23-.63.97-.63 1.52-2.06z" />
    <path d="M62.18 2.7v-.52H59.5v.52h1.04v3h-4.39V2.18h-1.64v.52h.98v6.87h-.97v.52h1.63V6.21h4.39v3.36h-1.03v.52h1.69V2.7z" />
</svg>
